<?xml version="1.0" standalone="no"?>
<!DOCTYPE svg PUBLIC "-//W3C//DTD SVG 1.1//EN" "http://www.w3.org/Graphics/SVG/1.1/DTD/svg11.dtd" >
<svg xmlns="http://www.w3.org/2000/svg" xmlns:xlink="http://www.w3.org/1999/xlink" version="1.1">
<metadata>
Created by FontForge 20170731 at Mon Jan  8 22:55:43 2018
 By Aleksey,,,
Copyright (c) 2017 by Rene' Bieder. All rights reserved.
</metadata>
<defs>
<font id="Campton-Book" horiz-adv-x="0" >
  <font-face 
    font-family="Campton-Book"
    font-weight="400"
    font-stretch="normal"
    units-per-em="1000"
    panose-1="2 11 0 4 2 1 2 2 2 3"
    ascent="749"
    descent="-251"
    x-height="464"
    cap-height="680"
    bbox="-19 -242 1013 731"
    underline-thickness="50"
    underline-position="-150"
    unicode-range="U+0020-FB02"
  />
<missing-glyph horiz-adv-x="870" 
d="M100 680h670v-680h-670v680zM700 129v481h-481zM170 547v-477h477z" />
    <glyph glyph-name="fi" unicode="fi" horiz-adv-x="644" 
d="M563 464v-464h-76v399h-272v-399h-76v399h-135v65h135v83q0 80 48.5 127.5t125.5 47.5q44 0 92 -14l-11 -62q-42 10 -73 10q-49 0 -77.5 -29.5t-28.5 -79.5v-83h348z" />
    <glyph glyph-name="fl" unicode="fl" horiz-adv-x="644" 
d="M487 710h76v-710h-76v399h-272v-399h-76v399h-135v65h135v83q0 80 48.5 127.5t125.5 47.5q44 0 92 -14l-11 -64q-43 12 -73 12q-49 0 -77.5 -29.5t-28.5 -79.5v-83h272v246z" />
    <glyph glyph-name=".notdef" horiz-adv-x="870" 
d="M100 680h670v-680h-670v680zM700 129v481h-481zM170 547v-477h477z" />
    <glyph glyph-name=".null" 
 />
    <glyph glyph-name="nonmarkingreturn" horiz-adv-x="333" 
 />
    <glyph glyph-name="space" unicode=" " horiz-adv-x="270" 
 />
    <glyph glyph-name="quotesingle" unicode="'" horiz-adv-x="171" 
d="M53 700h66v-269h-66v269z" />
    <glyph glyph-name="parenleft" unicode="(" horiz-adv-x="349" 
d="M142 304q0 -120 42.5 -208.5t129.5 -169.5l-49 -50q-201 164 -201 428q0 263 201 427l49 -50q-87 -80 -129.5 -168.5t-42.5 -208.5z" />
    <glyph glyph-name="parenright" unicode=")" horiz-adv-x="349" 
d="M84 731q201 -164 201 -427q0 -264 -201 -428l-49 50q87 81 129.5 169.5t42.5 208.5t-42.5 208.5t-129.5 168.5z" />
    <glyph glyph-name="asterisk" unicode="*" horiz-adv-x="402" 
d="M245 533l107 -65l-22 -39l-106 63v-113h-46v113l-105 -63l-23 39l107 65l-107 63l23 41l105 -63v110h46v-111l106 64l22 -41z" />
    <glyph glyph-name="plus" unicode="+" horiz-adv-x="693" 
d="M578 289h-194v-191h-74v191h-195v71h195v191h74v-191h194v-71z" />
    <glyph glyph-name="comma" unicode="," horiz-adv-x="198" 
d="M40 -128l49 129q-32 12 -32 42q0 21 14.5 35t35.5 14q22 0 36.5 -14t14.5 -35q0 -18 -16 -49l-54 -122h-48z" />
    <glyph glyph-name="hyphen" unicode="-" horiz-adv-x="562" 
d="M115 235h332v70h-332v-70z" />
    <glyph glyph-name="period" unicode="." horiz-adv-x="183" 
d="M91 -8q-21 0 -36 14.5t-15 36.5q0 21 15 35t36 14q22 0 37 -14t15 -35q0 -22 -15 -36.5t-37 -14.5z" />
    <glyph glyph-name="zero" unicode="0" horiz-adv-x="718" 
d="M359 692q137 0 216 -96.5t79 -255.5t-79 -255.5t-216 -96.5t-216 96.5t-79 255.5t79 255.5t216 96.5zM359 60q102 0 158.5 76.5t56.5 203.5t-56.5 204t-158.5 77t-158.5 -77t-56.5 -204t56.5 -203.5t158.5 -76.5z" />
    <glyph glyph-name="one" unicode="1" horiz-adv-x="508" 
d="M318 66h177v-66h-447v66h192v525l-181 -65v74l215 80h44v-614z" />
    <glyph glyph-name="three" unicode="3" horiz-adv-x="576" 
d="M408 345q110 -46 110 -163q0 -85 -65 -139.5t-165 -54.5t-166 49t-77 132h77q8 -51 53.5 -81.5t112.5 -30.5q69 0 112.5 35t43.5 90q0 58 -43 92.5t-114 34.5h-55v65h55q61 0 98 34t37 90q0 58 -38.5 92t-103.5 34q-61 0 -99.5 -30t-44.5 -81h-78q8 81 67.5 130t153.5 49
q98 0 158 -53.5t60 -139.5q0 -107 -89 -154z" />
    <glyph glyph-name="four" unicode="4" horiz-adv-x="642" 
d="M597 216v-68h-107v-148h-76v148h-364v49l206 483h80l-193 -464h271v218h76v-218h107z" />
    <glyph glyph-name="five" unicode="5" horiz-adv-x="586" 
d="M299 421q105 0 169 -58t64 -151q0 -97 -65 -160.5t-169 -63.5q-98 0 -163.5 52t-81.5 142h77q14 -59 58.5 -92.5t109.5 -33.5q72 0 116 43.5t44 110.5q0 64 -45.5 103.5t-122.5 39.5l-200 -1v328h413v-70h-340v-189h136z" />
    <glyph glyph-name="six" unicode="6" horiz-adv-x="620" 
d="M311 456q110 0 181 -65.5t71 -167.5q0 -103 -71 -169t-182 -66q-110 0 -181 66t-71 167q0 73 55 159l211 300h93l-159 -229q28 5 53 5zM310 53q77 0 126 46.5t49 119.5q0 72 -49.5 119.5t-125.5 47.5q-80 0 -128 -46l-4 -5q-43 -56 -43 -117q0 -72 49.5 -118.5
t125.5 -46.5z" />
    <glyph glyph-name="eight" unicode="8" horiz-adv-x="628" 
d="M440 360q62 -23 96 -67.5t34 -104.5q0 -90 -69.5 -145t-186.5 -55t-186.5 55t-69.5 145q0 60 34 104.5t96 67.5q-101 44 -101 149q0 81 64 132t163 51t163 -51t64 -132q0 -106 -101 -149zM314 630q-66 0 -108 -35.5t-42 -89.5q0 -56 42 -90t108 -34t108 34.5t42 89.5
q0 54 -42.5 89.5t-107.5 35.5zM314 54q76 0 123.5 38.5t47.5 100.5q0 59 -48 96.5t-123 37.5q-76 0 -123.5 -37.5t-47.5 -96.5q0 -62 47.5 -100.5t123.5 -38.5z" />
    <glyph glyph-name="A" unicode="A" horiz-adv-x="747" 
d="M633 0l-84 190h-351l-84 -190h-85l307 680h75l307 -680h-85zM229 261h288l-144 326z" />
    <glyph glyph-name="C" unicode="C" horiz-adv-x="806" 
d="M418 61q92 0 156.5 49.5t85.5 132.5h82q-24 -116 -112 -186t-212 -70q-148 0 -251 101.5t-103 251.5t103 251t251 101q124 0 212 -69.5t112 -185.5h-82q-21 84 -85.5 132.5t-156.5 48.5q-116 0 -195 -79.5t-79 -198.5t79 -199t195 -80z" />
    <glyph glyph-name="I" unicode="I" horiz-adv-x="264" 
d="M93 680h79v-680h-79v680z" />
    <glyph glyph-name="P" unicode="P" horiz-adv-x="631" 
d="M333 680q118 0 190 -62t72 -164q0 -106 -75 -170t-197 -64h-151v-220h-79v680h240zM330 293q84 0 135.5 44t51.5 117q0 69 -51.5 111.5t-135.5 42.5h-158v-315h158z" />
    <glyph glyph-name="T" unicode="T" horiz-adv-x="637" 
d="M609 680v-73h-251v-607h-79v607h-250v73h580z" />
    <glyph glyph-name="U" unicode="U" horiz-adv-x="748" 
d="M665 680v-389q0 -136 -80 -219.5t-211 -83.5t-211 83.5t-80 219.5v389h79v-389q0 -101 58.5 -165t153.5 -64t153.5 64.5t58.5 164.5v389h79z" />
    <glyph glyph-name="W" unicode="W" horiz-adv-x="1038" 
d="M930 680h83l-232 -685h-77l-185 544l-185 -544h-77l-232 685h83l187 -564l190 564h68l189 -563z" />
    <glyph glyph-name="bracketleft" unicode="[" horiz-adv-x="353" 
d="M169 657v-709h139v-73h-215v855h215v-73h-139z" />
    <glyph glyph-name="backslash" unicode="\" horiz-adv-x="403" 
d="M33 730h74l264 -890h-74z" />
    <glyph glyph-name="bracketright" unicode="]" horiz-adv-x="353" 
d="M184 657h-139v73h215v-855h-215v73h139v709z" />
    <glyph glyph-name="asciicircum" unicode="^" horiz-adv-x="397" 
d="M233 680l134 -235h-71l-97 177l-98 -177h-71l134 235h69z" />
    <glyph glyph-name="underscore" unicode="_" horiz-adv-x="648" 
d="M40 -191v67h568v-67h-568z" />
    <glyph glyph-name="grave" unicode="`" horiz-adv-x="600" 
d="M289 706l80 -143h-71l-94 143h85z" />
    <glyph glyph-name="a" unicode="a" horiz-adv-x="618" 
d="M460 464h76v-464h-76v48q-65 -60 -163 -60q-100 0 -169.5 71t-69.5 173q0 101 69.5 172.5t169.5 71.5q98 0 163 -60v48zM307 58q99 0 153 79v190q-54 79 -153 79q-73 0 -123 -51t-50 -123t50 -123t123 -51z" />
    <glyph glyph-name="b" unicode="b" horiz-adv-x="618" 
d="M321 476q100 0 169.5 -71t69.5 -173q0 -101 -69.5 -172.5t-169.5 -71.5q-98 0 -163 60v-48h-76v710h76v-294q65 60 163 60zM311 58q73 0 123 51t50 123t-50 123t-123 51q-99 0 -153 -79v-190q54 -79 153 -79z" />
    <glyph glyph-name="c" unicode="c" horiz-adv-x="577" 
d="M301 58q54 0 91.5 27t48.5 73h79q-13 -76 -74 -123t-145 -47q-105 0 -174 70t-69 174t69 174t174 70q84 0 145 -47.5t74 -123.5h-79q-11 46 -48.5 73.5t-91.5 27.5q-74 0 -120.5 -50t-46.5 -124t46.5 -124t120.5 -50z" />
    <glyph glyph-name="d" unicode="d" horiz-adv-x="618" 
d="M460 710h76v-710h-76v48q-65 -60 -163 -60q-100 0 -169.5 71.5t-69.5 172.5q0 102 69.5 173t169.5 71q98 0 163 -60v294zM307 58q99 0 153 79v190q-54 79 -153 79q-73 0 -123 -51t-50 -123t50 -123t123 -51z" />
    <glyph glyph-name="e" unicode="e" horiz-adv-x="583" 
d="M296 476q111 0 174.5 -76t52.5 -191h-388q7 -67 51 -110t114 -43q93 0 124 60h85q-22 -60 -78 -94t-131 -34q-106 0 -174 70t-68 174t67 174t171 70zM296 410q-67 0 -109 -41.5t-51 -105.5h311q-3 69 -44 108t-107 39z" />
    <glyph glyph-name="f" unicode="f" horiz-adv-x="405" 
d="M215 547v-83h186v-65h-186v-399h-76v399h-135v65h135v83q0 80 48.5 127.5t125.5 47.5q44 0 92 -14l-11 -64q-43 12 -73 12q-49 0 -77.5 -29.5t-28.5 -79.5z" />
    <glyph glyph-name="g" unicode="g" horiz-adv-x="618" 
d="M460 464h76v-487q0 -101 -63.5 -160t-167.5 -59q-95 0 -159.5 48.5t-76.5 126.5h78q10 -48 52 -77t106 -29q71 0 113 40t42 110v87q-68 -60 -168 -60q-99 0 -166.5 68.5t-67.5 165.5q0 102 67 170t167 68t168 -60v48zM302 71q102 0 158 82v174q-56 82 -158 82
q-73 0 -120.5 -48.5t-47.5 -122.5q0 -68 48 -117.5t120 -49.5z" />
    <glyph glyph-name="h" unicode="h" horiz-adv-x="586" 
d="M324 476q90 0 144.5 -56.5t54.5 -153.5v-266h-76v262q0 69 -37 106.5t-100 37.5q-90 0 -152 -80v-326h-76v710h76v-298q67 64 166 64z" />
    <glyph glyph-name="i" unicode="i" horiz-adv-x="266" 
d="M133 588q-22 0 -36.5 14.5t-14.5 35.5q0 22 14.5 36.5t36.5 14.5t37 -14.5t15 -36.5q0 -21 -15 -35.5t-37 -14.5zM96 464h76v-464h-76v464z" />
    <glyph glyph-name="j" unicode="j" horiz-adv-x="258" 
d="M125 588q-22 0 -37 14.5t-15 35.5q0 22 15 36.5t37 14.5t36.5 -14.5t14.5 -36.5q0 -21 -14.5 -35.5t-36.5 -14.5zM163 464v-511q0 -102 -39 -148t-138 -47l-5 67q59 2 82.5 28.5t23.5 90.5v520h76z" />
    <glyph glyph-name="k" unicode="k" horiz-adv-x="561" 
d="M444 0l-190 217l-96 -93v-124h-76v710h76v-486l251 240h98l-199 -194l235 -270h-99z" />
    <glyph glyph-name="l" unicode="l" horiz-adv-x="239" 
d="M82 710h76v-710h-76v710z" />
    <glyph glyph-name="m" unicode="m" horiz-adv-x="903" 
d="M645 476q90 0 142.5 -52t52.5 -150v-274h-76v274q0 132 -124 132q-93 0 -145 -79q4 -20 4 -49v-278h-76v278q0 66 -32 97t-88 31q-93 0 -145 -78v-328h-76v464h76v-50q60 62 153 62q110 0 158 -77q71 77 176 77z" />
    <glyph glyph-name="n" unicode="n" horiz-adv-x="586" 
d="M324 476q90 0 144.5 -56.5t54.5 -153.5v-266h-76v262q0 69 -37 106.5t-100 37.5q-90 0 -152 -80v-326h-76v464h76v-52q67 64 166 64z" />
    <glyph glyph-name="o" unicode="o" horiz-adv-x="608" 
d="M305 476q106 0 176 -69.5t70 -174.5t-70 -174.5t-176 -69.5t-176.5 69.5t-70.5 174.5t70.5 174.5t176.5 69.5zM305 58q73 0 121 49.5t48 124.5t-48 124.5t-121 49.5q-74 0 -122.5 -49.5t-48.5 -124.5t48.5 -124.5t122.5 -49.5z" />
    <glyph glyph-name="p" unicode="p" horiz-adv-x="618" 
d="M321 475q100 0 169.5 -71t69.5 -172q0 -102 -69.5 -172.5t-169.5 -70.5q-98 0 -163 60v-281h-76v696h76v-49q65 60 163 60zM311 56q73 0 123 51.5t50 124.5t-50 124.5t-123 51.5q-98 0 -153 -81v-190q55 -81 153 -81z" />
    <glyph glyph-name="q" unicode="q" horiz-adv-x="618" 
d="M460 464h76v-696h-76v281q-65 -60 -163 -60q-100 0 -169.5 70.5t-69.5 172.5q0 101 69.5 172t169.5 71q98 0 163 -60v49zM307 56q98 0 153 81v190q-55 81 -153 81q-73 0 -123 -51.5t-50 -124.5t50 -124.5t123 -51.5z" />
    <glyph glyph-name="r" unicode="r" horiz-adv-x="364" 
d="M158 388q68 87 179 87v-72q-116 -3 -179 -101v-302h-76v464h76v-76z" />
    <glyph glyph-name="s" unicode="s" horiz-adv-x="525" 
d="M121 146q21 -95 147 -95q55 0 88 19.5t33 54.5q0 56 -76 70l-105 17q-138 24 -138 126q0 64 51.5 101t136.5 37q52 0 94 -13t73 -47.5t35 -86.5h-71q-12 85 -131 85q-52 0 -82 -18.5t-30 -50.5q0 -55 86 -70l92 -15q138 -23 138 -130q0 -67 -54 -104.5t-142 -37.5
q-92 0 -149 39.5t-67 118.5h71z" />
    <glyph glyph-name="t" unicode="t" horiz-adv-x="433" 
d="M380 75l11 -70q-50 -17 -98 -17q-169 0 -169 184v227h-121v65h121v171h76v-171h175v-65h-175v-227q0 -59 25 -86t75 -27q36 0 80 16z" />
    <glyph glyph-name="u" unicode="u" horiz-adv-x="586" 
d="M428 464h76v-464h-76v53q-68 -65 -166 -65q-89 0 -144 57.5t-55 154.5v264h76v-260q0 -69 37 -107.5t100 -38.5q90 0 152 82v324z" />
    <glyph glyph-name="v" unicode="v" horiz-adv-x="574" 
d="M460 464h81l-219 -464h-70l-219 464h81l173 -368z" />
    <glyph glyph-name="w" unicode="w" horiz-adv-x="782" 
d="M667 464h82l-169 -464h-69l-120 355l-120 -355h-69l-169 464h82l122 -349l121 349h66l121 -348z" />
    <glyph glyph-name="x" unicode="x" horiz-adv-x="538" 
d="M508 0h-92l-146 180l-148 -180h-92l189 232l-1 1l-185 231h94l142 -175l143 175h93l-185 -231z" />
    <glyph glyph-name="y" unicode="y" horiz-adv-x="602" 
d="M489 464h81l-314 -695h-81l97 215l-239 480h82l194 -399z" />
    <glyph glyph-name="z" unicode="z" horiz-adv-x="494" 
d="M448 464v-44l-289 -355h289v-65h-402v39l292 360h-282v65h392z" />
    <glyph glyph-name="quoteright" unicode="&#x2019;" horiz-adv-x="198" 
d="M40 483l49 129q-32 12 -32 42q0 21 14.5 35t35.5 14q22 0 36.5 -14t14.5 -35q0 -18 -16 -49l-54 -122h-48z" />
    <glyph glyph-name="quotesinglbase" unicode="&#x201a;" horiz-adv-x="198" 
d="M40 -128l49 129q-32 12 -32 42q0 21 14.5 35t35.5 14q22 0 36.5 -14t14.5 -35q0 -18 -16 -49l-54 -122h-48z" />
    <glyph glyph-name="quotedblleft" unicode="&#x201c;" horiz-adv-x="363" 
d="M158 702l-49 -129q32 -12 32 -42q0 -21 -14.5 -35t-35.5 -14q-22 0 -36.5 14t-14.5 35q0 18 16 49l54 122h48zM323 702l-49 -129q32 -12 32 -42q0 -21 -14.5 -35t-35.5 -14q-22 0 -36.5 14t-14.5 35q0 18 16 49l54 122h48z" />
    <glyph glyph-name="quotedblright" unicode="&#x201d;" horiz-adv-x="364" 
d="M40 483l49 129q-32 12 -32 42q0 21 14.5 35t35.5 14q22 0 36.5 -14t14.5 -35q0 -18 -16 -49l-54 -122h-48zM206 483l49 129q-32 12 -32 42q0 21 14.5 35t35.5 14q22 0 36.5 -14t14.5 -35q0 -18 -16 -49l-54 -122h-48z" />
    <glyph glyph-name="exclam" 
 />
    <glyph glyph-name="quotedbl" 
 />
    <glyph glyph-name="numbersign" 
 />
    <glyph glyph-name="dollar" 
 />
    <glyph glyph-name="percent" 
 />
    <glyph glyph-name="ampersand" 
 />
    <glyph glyph-name="slash" 
 />
    <glyph glyph-name="two" 
 />
    <glyph glyph-name="seven" 
 />
    <glyph glyph-name="nine" 
 />
    <glyph glyph-name="colon" 
 />
    <glyph glyph-name="semicolon" 
 />
    <glyph glyph-name="less" 
 />
    <glyph glyph-name="equal" 
 />
    <glyph glyph-name="greater" 
 />
    <glyph glyph-name="question" 
 />
    <glyph glyph-name="at" 
 />
    <glyph glyph-name="B" 
 />
    <glyph glyph-name="D" 
 />
    <glyph glyph-name="E" 
 />
    <glyph glyph-name="F" 
 />
    <glyph glyph-name="G" 
 />
    <glyph glyph-name="H" 
 />
    <glyph glyph-name="J" 
 />
    <glyph glyph-name="K" 
 />
    <glyph glyph-name="L" 
 />
    <glyph glyph-name="M" 
 />
    <glyph glyph-name="N" 
 />
    <glyph glyph-name="O" 
 />
    <glyph glyph-name="Q" 
 />
    <glyph glyph-name="R" 
 />
    <glyph glyph-name="S" 
 />
    <glyph glyph-name="V" 
 />
    <glyph glyph-name="X" 
 />
    <glyph glyph-name="Y" 
 />
    <glyph glyph-name="Z" 
 />
    <glyph glyph-name="braceleft" 
 />
    <glyph glyph-name="bar" 
 />
    <glyph glyph-name="braceright" 
 />
    <glyph glyph-name="asciitilde" 
 />
    <glyph glyph-name="exclamdown" 
 />
    <glyph glyph-name="cent" 
 />
    <glyph glyph-name="sterling" 
 />
    <glyph glyph-name="yen" 
 />
    <glyph glyph-name="brokenbar" 
 />
    <glyph glyph-name="section" 
 />
    <glyph glyph-name="dieresis" 
 />
    <glyph glyph-name="copyright" 
 />
    <glyph glyph-name="ordfeminine" 
 />
    <glyph glyph-name="guillemotleft" 
 />
    <glyph glyph-name="registered" 
 />
    <glyph glyph-name="macron" 
 />
    <glyph glyph-name="degree" 
 />
    <glyph glyph-name="plusminus" 
 />
    <glyph glyph-name="uni00B2" 
 />
    <glyph glyph-name="uni00B3" 
 />
    <glyph glyph-name="acute" 
 />
    <glyph glyph-name="paragraph" 
 />
    <glyph glyph-name="periodcentered" 
 />
    <glyph glyph-name="cedilla" 
 />
    <glyph glyph-name="uni00B9" 
 />
    <glyph glyph-name="ordmasculine" 
 />
    <glyph glyph-name="guillemotright" 
 />
    <glyph glyph-name="onequarter" 
 />
    <glyph glyph-name="onehalf" 
 />
    <glyph glyph-name="threequarters" 
 />
    <glyph glyph-name="questiondown" 
 />
    <glyph glyph-name="Agrave" 
 />
    <glyph glyph-name="Aacute" 
 />
    <glyph glyph-name="Acircumflex" 
 />
    <glyph glyph-name="Atilde" 
 />
    <glyph glyph-name="Adieresis" 
 />
    <glyph glyph-name="Aring" 
 />
    <glyph glyph-name="AE" 
 />
    <glyph glyph-name="Ccedilla" 
 />
    <glyph glyph-name="Egrave" 
 />
    <glyph glyph-name="Eacute" 
 />
    <glyph glyph-name="Ecircumflex" 
 />
    <glyph glyph-name="Edieresis" 
 />
    <glyph glyph-name="Igrave" 
 />
    <glyph glyph-name="Iacute" 
 />
    <glyph glyph-name="Icircumflex" 
 />
    <glyph glyph-name="Idieresis" 
 />
    <glyph glyph-name="Eth" 
 />
    <glyph glyph-name="Ntilde" 
 />
    <glyph glyph-name="Ograve" 
 />
    <glyph glyph-name="Oacute" 
 />
    <glyph glyph-name="Ocircumflex" 
 />
    <glyph glyph-name="Otilde" 
 />
    <glyph glyph-name="Odieresis" 
 />
    <glyph glyph-name="multiply" 
 />
    <glyph glyph-name="Oslash" 
 />
    <glyph glyph-name="Ugrave" 
 />
    <glyph glyph-name="Uacute" 
 />
    <glyph glyph-name="Ucircumflex" 
 />
    <glyph glyph-name="Udieresis" 
 />
    <glyph glyph-name="Yacute" 
 />
    <glyph glyph-name="Thorn" 
 />
    <glyph glyph-name="germandbls" 
 />
    <glyph glyph-name="agrave" 
 />
    <glyph glyph-name="aacute" 
 />
    <glyph glyph-name="acircumflex" 
 />
    <glyph glyph-name="atilde" 
 />
    <glyph glyph-name="adieresis" 
 />
    <glyph glyph-name="aring" 
 />
    <glyph glyph-name="ae" 
 />
    <glyph glyph-name="ccedilla" 
 />
    <glyph glyph-name="egrave" 
 />
    <glyph glyph-name="eacute" 
 />
    <glyph glyph-name="ecircumflex" 
 />
    <glyph glyph-name="edieresis" 
 />
    <glyph glyph-name="igrave" 
 />
    <glyph glyph-name="iacute" 
 />
    <glyph glyph-name="icircumflex" 
 />
    <glyph glyph-name="idieresis" 
 />
    <glyph glyph-name="eth" 
 />
    <glyph glyph-name="ntilde" 
 />
    <glyph glyph-name="ograve" 
 />
    <glyph glyph-name="oacute" 
 />
    <glyph glyph-name="ocircumflex" 
 />
    <glyph glyph-name="otilde" 
 />
    <glyph glyph-name="odieresis" 
 />
    <glyph glyph-name="divide" 
 />
    <glyph glyph-name="oslash" 
 />
    <glyph glyph-name="ugrave" 
 />
    <glyph glyph-name="uacute" 
 />
    <glyph glyph-name="ucircumflex" 
 />
    <glyph glyph-name="udieresis" 
 />
    <glyph glyph-name="yacute" 
 />
    <glyph glyph-name="thorn" 
 />
    <glyph glyph-name="ydieresis" 
 />
    <glyph glyph-name="Amacron" 
 />
    <glyph glyph-name="amacron" 
 />
    <glyph glyph-name="Abreve" 
 />
    <glyph glyph-name="abreve" 
 />
    <glyph glyph-name="Aogonek" 
 />
    <glyph glyph-name="aogonek" 
 />
    <glyph glyph-name="Cacute" 
 />
    <glyph glyph-name="cacute" 
 />
    <glyph glyph-name="Cdotaccent" 
 />
    <glyph glyph-name="cdotaccent" 
 />
    <glyph glyph-name="Ccaron" 
 />
    <glyph glyph-name="ccaron" 
 />
    <glyph glyph-name="Dcaron" 
 />
    <glyph glyph-name="dcaron" 
 />
    <glyph glyph-name="Dcroat" 
 />
    <glyph glyph-name="dcroat" 
 />
    <glyph glyph-name="Emacron" 
 />
    <glyph glyph-name="emacron" 
 />
    <glyph glyph-name="Edotaccent" 
 />
    <glyph glyph-name="edotaccent" 
 />
    <glyph glyph-name="Eogonek" 
 />
    <glyph glyph-name="eogonek" 
 />
    <glyph glyph-name="Ecaron" 
 />
    <glyph glyph-name="ecaron" 
 />
    <glyph glyph-name="Gbreve" 
 />
    <glyph glyph-name="gbreve" 
 />
    <glyph glyph-name="Gdotaccent" 
 />
    <glyph glyph-name="gdotaccent" 
 />
    <glyph glyph-name="Gcommaaccent" 
 />
    <glyph glyph-name="gcommaaccent" 
 />
    <glyph glyph-name="Hbar" 
 />
    <glyph glyph-name="hbar" 
 />
    <glyph glyph-name="Imacron" 
 />
    <glyph glyph-name="imacron" 
 />
    <glyph glyph-name="Iogonek" 
 />
    <glyph glyph-name="iogonek" 
 />
    <glyph glyph-name="Idotaccent" 
 />
    <glyph glyph-name="dotlessi" 
 />
    <glyph glyph-name="IJ" 
 />
    <glyph glyph-name="ij" 
 />
    <glyph glyph-name="Kcommaaccent" 
 />
    <glyph glyph-name="kcommaaccent" 
 />
    <glyph glyph-name="Lacute" 
 />
    <glyph glyph-name="lacute" 
 />
    <glyph glyph-name="Lcommaaccent" 
 />
    <glyph glyph-name="lcommaaccent" 
 />
    <glyph glyph-name="Lcaron" 
 />
    <glyph glyph-name="lcaron" 
 />
    <glyph glyph-name="Ldot" 
 />
    <glyph glyph-name="ldot" 
 />
    <glyph glyph-name="Lslash" 
 />
    <glyph glyph-name="lslash" 
 />
    <glyph glyph-name="Nacute" 
 />
    <glyph glyph-name="nacute" 
 />
    <glyph glyph-name="Ncommaaccent" 
 />
    <glyph glyph-name="ncommaaccent" 
 />
    <glyph glyph-name="Ncaron" 
 />
    <glyph glyph-name="ncaron" 
 />
    <glyph glyph-name="Omacron" 
 />
    <glyph glyph-name="omacron" 
 />
    <glyph glyph-name="Ohungarumlaut" 
 />
    <glyph glyph-name="ohungarumlaut" 
 />
    <glyph glyph-name="OE" 
 />
    <glyph glyph-name="oe" 
 />
    <glyph glyph-name="Racute" 
 />
    <glyph glyph-name="racute" 
 />
    <glyph glyph-name="Rcommaaccent" 
 />
    <glyph glyph-name="rcommaaccent" 
 />
    <glyph glyph-name="Rcaron" 
 />
    <glyph glyph-name="rcaron" 
 />
    <glyph glyph-name="Sacute" 
 />
    <glyph glyph-name="sacute" 
 />
    <glyph glyph-name="Scedilla" 
 />
    <glyph glyph-name="scedilla" 
 />
    <glyph glyph-name="Scaron" 
 />
    <glyph glyph-name="scaron" 
 />
    <glyph glyph-name="uni0162" 
 />
    <glyph glyph-name="uni0163" 
 />
    <glyph glyph-name="Tcaron" 
 />
    <glyph glyph-name="tcaron" 
 />
    <glyph glyph-name="Umacron" 
 />
    <glyph glyph-name="umacron" 
 />
    <glyph glyph-name="Uring" 
 />
    <glyph glyph-name="uring" 
 />
    <glyph glyph-name="Uhungarumlaut" 
 />
    <glyph glyph-name="uhungarumlaut" 
 />
    <glyph glyph-name="Uogonek" 
 />
    <glyph glyph-name="uogonek" 
 />
    <glyph glyph-name="Wcircumflex" 
 />
    <glyph glyph-name="wcircumflex" 
 />
    <glyph glyph-name="Ycircumflex" 
 />
    <glyph glyph-name="ycircumflex" 
 />
    <glyph glyph-name="Ydieresis" 
 />
    <glyph glyph-name="Zacute" 
 />
    <glyph glyph-name="zacute" 
 />
    <glyph glyph-name="Zdotaccent" 
 />
    <glyph glyph-name="zdotaccent" 
 />
    <glyph glyph-name="Zcaron" 
 />
    <glyph glyph-name="zcaron" 
 />
    <glyph glyph-name="florin" 
 />
    <glyph glyph-name="uni01CD" 
 />
    <glyph glyph-name="uni01CE" 
 />
    <glyph glyph-name="Scommaaccent" 
 />
    <glyph glyph-name="scommaaccent" 
 />
    <glyph glyph-name="uni021A" 
 />
    <glyph glyph-name="uni021B" 
 />
    <glyph glyph-name="circumflex" 
 />
    <glyph glyph-name="caron" 
 />
    <glyph glyph-name="breve" 
 />
    <glyph glyph-name="dotaccent" 
 />
    <glyph glyph-name="ring" 
 />
    <glyph glyph-name="ogonek" 
 />
    <glyph glyph-name="tilde" 
 />
    <glyph glyph-name="hungarumlaut" 
 />
    <glyph glyph-name="uni0326" 
 />
    <glyph glyph-name="Wgrave" 
 />
    <glyph glyph-name="wgrave" 
 />
    <glyph glyph-name="Wacute" 
 />
    <glyph glyph-name="wacute" 
 />
    <glyph glyph-name="Wdieresis" 
 />
    <glyph glyph-name="wdieresis" 
 />
    <glyph glyph-name="uni1E9E" 
 />
    <glyph glyph-name="Ygrave" 
 />
    <glyph glyph-name="ygrave" 
 />
    <glyph glyph-name="endash" 
 />
    <glyph glyph-name="emdash" 
 />
    <glyph glyph-name="quoteleft" 
 />
    <glyph glyph-name="quotedblbase" 
 />
    <glyph glyph-name="dagger" 
 />
    <glyph glyph-name="daggerdbl" 
 />
    <glyph glyph-name="bullet" 
 />
    <glyph glyph-name="ellipsis" 
 />
    <glyph glyph-name="perthousand" 
 />
    <glyph glyph-name="guilsinglleft" 
 />
    <glyph glyph-name="guilsinglright" 
 />
    <glyph glyph-name="fraction" 
 />
    <glyph glyph-name="uni2070" 
 />
    <glyph glyph-name="uni2074" 
 />
    <glyph glyph-name="uni2075" 
 />
    <glyph glyph-name="uni2076" 
 />
    <glyph glyph-name="uni2077" 
 />
    <glyph glyph-name="uni2078" 
 />
    <glyph glyph-name="uni2079" 
 />
    <glyph glyph-name="uni2080" 
 />
    <glyph glyph-name="uni2081" 
 />
    <glyph glyph-name="uni2082" 
 />
    <glyph glyph-name="uni2083" 
 />
    <glyph glyph-name="uni2084" 
 />
    <glyph glyph-name="uni2085" 
 />
    <glyph glyph-name="uni2086" 
 />
    <glyph glyph-name="uni2087" 
 />
    <glyph glyph-name="uni2088" 
 />
    <glyph glyph-name="uni2089" 
 />
    <glyph glyph-name="Euro" 
 />
    <glyph glyph-name="uni20B9" 
 />
    <glyph glyph-name="uni2116" 
 />
    <glyph glyph-name="uni2117" 
 />
    <glyph glyph-name="trademark" 
 />
    <glyph glyph-name="oneeighth" 
 />
    <glyph glyph-name="threeeighths" 
 />
    <glyph glyph-name="fiveeighths" 
 />
    <glyph glyph-name="seveneighths" 
 />
    <glyph glyph-name="arrowleft" 
 />
    <glyph glyph-name="arrowup" 
 />
    <glyph glyph-name="arrowright" 
 />
    <glyph glyph-name="arrowdown" 
 />
    <glyph glyph-name="uni2196" 
 />
    <glyph glyph-name="uni2197" 
 />
    <glyph glyph-name="uni2198" 
 />
    <glyph glyph-name="uni2199" 
 />
    <glyph glyph-name="minus" 
 />
    <glyph glyph-name="R.ss02" 
 />
    <glyph glyph-name="Racute.ss02" 
 />
    <glyph glyph-name="Rcaron.ss02" 
 />
    <glyph glyph-name="Rcommaaccent.ss02" 
 />
    <glyph glyph-name="Q.ss03" 
 />
    <glyph glyph-name="i.loclTRK" 
 />
    <glyph glyph-name="germandbls.case" 
 />
    <glyph glyph-name="l.ss01" 
 />
    <glyph glyph-name="lacute.ss01" 
 />
    <glyph glyph-name="lcaron.ss01" 
 />
    <glyph glyph-name="lcommaaccent.ss01" 
 />
    <glyph glyph-name="ldot.ss01" 
 />
    <glyph glyph-name="lslash.ss01" 
 />
    <glyph glyph-name="y.ss04" 
 />
    <glyph glyph-name="yacute.ss04" 
 />
    <glyph glyph-name="ycircumflex.ss04" 
 />
    <glyph glyph-name="ydieresis.ss04" 
 />
    <glyph glyph-name="ygrave.ss04" 
 />
    <glyph glyph-name="a.ss06" 
 />
    <glyph glyph-name="aacute.ss06" 
 />
    <glyph glyph-name="abreve.ss06" 
 />
    <glyph glyph-name="uni01CE.ss06" 
 />
    <glyph glyph-name="acircumflex.ss06" 
 />
    <glyph glyph-name="adieresis.ss06" 
 />
    <glyph glyph-name="agrave.ss06" 
 />
    <glyph glyph-name="amacron.ss06" 
 />
    <glyph glyph-name="aogonek.ss06" 
 />
    <glyph glyph-name="aring.ss06" 
 />
    <glyph glyph-name="atilde.ss06" 
 />
    <glyph glyph-name="zero.osf" 
 />
    <glyph glyph-name="one.osf" 
 />
    <glyph glyph-name="two.osf" 
 />
    <glyph glyph-name="three.osf" 
 />
    <glyph glyph-name="four.osf" 
 />
    <glyph glyph-name="five.osf" 
 />
    <glyph glyph-name="six.osf" 
 />
    <glyph glyph-name="seven.osf" 
 />
    <glyph glyph-name="eight.osf" 
 />
    <glyph glyph-name="nine.osf" 
 />
    <glyph glyph-name="zero.osf.zero" 
 />
    <glyph glyph-name="zero.tf" 
 />
    <glyph glyph-name="one.tf" 
 />
    <glyph glyph-name="two.tf" 
 />
    <glyph glyph-name="three.tf" 
 />
    <glyph glyph-name="four.tf" 
 />
    <glyph glyph-name="five.tf" 
 />
    <glyph glyph-name="six.tf" 
 />
    <glyph glyph-name="seven.tf" 
 />
    <glyph glyph-name="eight.tf" 
 />
    <glyph glyph-name="nine.tf" 
 />
    <glyph glyph-name="zero.zero" 
 />
    <glyph glyph-name="zero.dnom" 
 />
    <glyph glyph-name="one.dnom" 
 />
    <glyph glyph-name="two.dnom" 
 />
    <glyph glyph-name="three.dnom" 
 />
    <glyph glyph-name="four.dnom" 
 />
    <glyph glyph-name="five.dnom" 
 />
    <glyph glyph-name="six.dnom" 
 />
    <glyph glyph-name="seven.dnom" 
 />
    <glyph glyph-name="eight.dnom" 
 />
    <glyph glyph-name="nine.dnom" 
 />
    <glyph glyph-name="zero.numr" 
 />
    <glyph glyph-name="one.numr" 
 />
    <glyph glyph-name="two.numr" 
 />
    <glyph glyph-name="three.numr" 
 />
    <glyph glyph-name="four.numr" 
 />
    <glyph glyph-name="five.numr" 
 />
    <glyph glyph-name="six.numr" 
 />
    <glyph glyph-name="seven.numr" 
 />
    <glyph glyph-name="eight.numr" 
 />
    <glyph glyph-name="nine.numr" 
 />
    <glyph glyph-name="backslash.case" 
 />
    <glyph glyph-name="periodcentered.case" 
 />
    <glyph glyph-name="bullet.case" 
 />
    <glyph glyph-name="exclamdown.case" 
 />
    <glyph glyph-name="questiondown.case" 
 />
    <glyph glyph-name="slash.case" 
 />
    <glyph glyph-name="braceleft.case" 
 />
    <glyph glyph-name="braceright.case" 
 />
    <glyph glyph-name="bracketleft.case" 
 />
    <glyph glyph-name="bracketright.case" 
 />
    <glyph glyph-name="parenleft.case" 
 />
    <glyph glyph-name="parenright.case" 
 />
    <glyph glyph-name="emdash.case" 
 />
    <glyph glyph-name="endash.case" 
 />
    <glyph glyph-name="hyphen.case" 
 />
    <glyph glyph-name="guillemotleft.case" 
 />
    <glyph glyph-name="guillemotright.case" 
 />
    <glyph glyph-name="guilsinglleft.case" 
 />
    <glyph glyph-name="guilsinglright.case" 
 />
    <glyph glyph-name="cent.tf" 
 />
    <glyph glyph-name="dollar.tf" 
 />
    <glyph glyph-name="Euro.tf" 
 />
    <glyph glyph-name="florin.tf" 
 />
    <glyph glyph-name="uni20B9.tf" 
 />
    <glyph glyph-name="sterling.tf" 
 />
    <glyph glyph-name="yen.tf" 
 />
    <glyph glyph-name="arrowup.ss05" 
 />
    <glyph glyph-name="arrowright.ss05" 
 />
    <glyph glyph-name="arrowdown.ss05" 
 />
    <glyph glyph-name="arrowleft.ss05" 
 />
    <glyph glyph-name="at.case" 
 />
    <glyph glyph-name="bar.case" 
 />
    <glyph glyph-name="brokenbar.case" 
 />
    <glyph glyph-name="registered.ss07" 
 />
    <glyph glyph-name="caron.alt" 
 />
    <glyph glyph-name="acute.case" 
 />
    <glyph glyph-name="breve.case" 
 />
    <glyph glyph-name="caron.case" 
 />
    <glyph glyph-name="circumflex.case" 
 />
    <glyph glyph-name="dieresis.case" 
 />
    <glyph glyph-name="dotaccent.case" 
 />
    <glyph glyph-name="grave.case" 
 />
    <glyph glyph-name="hungarumlaut.case" 
 />
    <glyph glyph-name="macron.case" 
 />
    <glyph glyph-name="ring.case" 
 />
    <glyph glyph-name="tilde.case" 
 />
    </font>
</defs>
</svg>
